<?xml version="1.0" standalone="no"?>
<!DOCTYPE svg PUBLIC "-//W3C//DTD SVG 20010904//EN"
 "http://www.w3.org/TR/2001/REC-SVG-20010904/DTD/svg10.dtd">
<svg id="overlayed-beer-svg" version="1.0" xmlns="http://www.w3.org/2000/svg"
 width="295.000000pt" height="728.000000pt" viewBox="0 0 295.000000 728.000000"
 preserveAspectRatio="xMidYMid meet">
<metadata>
Created by potrace 1.16, written by Peter Selinger 2001-2019
</metadata>
<g transform="translate(0.000000,728.000000) scale(0.100000,-0.100000)"
fill="#000000" stroke="none">
<path d="M1456 5373 l-949 -3 7 -73 c72 -764 217 -1826 321 -2354 63 -319 85
-637 85 -1255 0 -260 -4 -396 -11 -415 -13 -32 -39 -195 -33 -205 5 -7 187
-51 279 -67 258 -45 593 -29 923 45 64 14 128 31 142 37 38 18 38 63 -1 134
l-31 58 6 390 c12 738 28 964 96 1380 56 342 92 588 149 1030 51 388 151 1235
151 1275 l0 30 -92 -2 c-51 -2 -520 -4 -1042 -5z"/>
</g>
</svg>
